<?xml version="1.0" encoding="UTF-8"?>
<!DOCTYPE svg PUBLIC "-//W3C//DTD SVG 1.1//EN" "http://www.w3.org/Graphics/SVG/1.1/DTD/svg11.dtd">
<svg xmlns="http://www.w3.org/2000/svg" version="1.1" width="512px" height="512px" style="shape-rendering:geometricPrecision; text-rendering:geometricPrecision; image-rendering:optimizeQuality; fill-rule:evenodd; clip-rule:evenodd" xmlns:xlink="http://www.w3.org/1999/xlink">
<g><path style="opacity:0.996" fill="#eec488" d="M 255.5,31.5 C 255.5,114.833 255.5,198.167 255.5,281.5C 251.958,281.187 248.625,281.521 245.5,282.5C 230.657,281.632 216.99,285.132 204.5,293C 193.407,302.708 189.24,314.874 192,329.5C 199.812,353.818 215.312,371.484 238.5,382.5C 239.5,414.493 239.833,446.493 239.5,478.5C 198.854,479.45 160.187,471.283 123.5,454C 85.958,433.447 63.7914,401.947 57,359.5C 53.5136,329.921 55.0136,300.587 61.5,271.5C 77.6111,225.008 94.4444,178.675 112,132.5C 121.078,112.659 132.411,94.3254 146,77.5C 151.571,71.258 157.738,65.758 164.5,61C 165.823,60.1841 166.489,59.0174 166.5,57.5C 193.337,39.7013 223.004,31.0346 255.5,31.5 Z"/></g>
<g><path style="opacity:1" fill="#b19267" d="M 255.5,31.5 C 287.994,31.0343 317.661,39.7009 344.5,57.5C 367.044,76.8622 384.544,100.196 397,127.5C 400.667,136.167 404.333,144.833 408,153.5C 421.773,192.991 435.606,232.324 449.5,271.5C 475.03,399.475 422.697,468.309 292.5,478C 285.508,478.5 278.508,478.666 271.5,478.5C 271.5,446.833 271.5,415.167 271.5,383.5C 294.964,372.203 310.798,354.203 319,329.5C 321.377,302.861 309.21,287.694 282.5,284C 273.537,282.835 264.537,282.335 255.5,282.5C 252.167,282.5 248.833,282.5 245.5,282.5C 248.625,281.521 251.958,281.187 255.5,281.5C 255.5,198.167 255.5,114.833 255.5,31.5 Z"/></g>
<g><path style="opacity:0.987" fill="#965500" d="M 166.5,57.5 C 166.489,59.0174 165.823,60.1841 164.5,61C 157.738,65.758 151.571,71.258 146,77.5C 132.411,94.3254 121.078,112.659 112,132.5C 94.4444,178.675 77.6111,225.008 61.5,271.5C 29.5425,267.536 8.87579,250.203 -0.5,219.5C -0.5,211.833 -0.5,204.167 -0.5,196.5C 4.25559,176.642 12.0889,157.975 23,140.5C 38.556,116.269 57.056,94.4355 78.5,75C 91.4716,63.5519 106.472,55.8853 123.5,52C 138.549,48.8443 152.883,50.6776 166.5,57.5 Z"/></g>
<g><path style="opacity:0.987" fill="#703f00" d="M 511.5,196.5 C 511.5,204.167 511.5,211.833 511.5,219.5C 502.124,250.203 481.458,267.536 449.5,271.5C 435.606,232.324 421.773,192.991 408,153.5C 404.333,144.833 400.667,136.167 397,127.5C 384.544,100.196 367.044,76.8622 344.5,57.5C 358.117,50.6776 372.451,48.8443 387.5,52C 404.528,55.8853 419.528,63.5519 432.5,75C 462.853,102.351 486.687,134.518 504,171.5C 506.99,179.819 509.49,188.152 511.5,196.5 Z"/></g>
<g><path style="opacity:1" fill="#353434" d="M 198.5,198.5 C 210.393,197.525 218.559,202.525 223,213.5C 224.953,231.787 216.787,240.621 198.5,240C 185.955,235.082 181.121,225.915 184,212.5C 186.832,205.684 191.665,201.017 198.5,198.5 Z"/></g>
<g><path style="opacity:1" fill="#333333" d="M 305.5,198.5 C 321.762,200.262 328.929,209.262 327,225.5C 322.078,237.545 313.245,242.045 300.5,239C 288.484,232.977 284.651,223.477 289,210.5C 292.725,203.926 298.225,199.926 305.5,198.5 Z"/></g>
<g><path style="opacity:1" fill="#3f2d27" d="M 245.5,282.5 C 248.833,282.5 252.167,282.5 255.5,282.5C 255.5,347.833 255.5,413.167 255.5,478.5C 251.298,478.183 247.298,478.517 243.5,479.5C 241.901,479.768 240.568,479.434 239.5,478.5C 239.833,446.493 239.5,414.493 238.5,382.5C 215.312,371.484 199.812,353.818 192,329.5C 189.24,314.874 193.407,302.708 204.5,293C 216.99,285.132 230.657,281.632 245.5,282.5 Z"/></g>
<g><path style="opacity:1" fill="#2e211d" d="M 255.5,282.5 C 264.537,282.335 273.537,282.835 282.5,284C 309.21,287.694 321.377,302.861 319,329.5C 310.798,354.203 294.964,372.203 271.5,383.5C 270.502,414.996 270.168,446.662 270.5,478.5C 265.5,478.5 260.5,478.5 255.5,478.5C 255.5,413.167 255.5,347.833 255.5,282.5 Z"/></g>
<g><path style="opacity:1" fill="#523f31" d="M 271.5,383.5 C 271.5,415.167 271.5,446.833 271.5,478.5C 262.348,479.494 253.015,479.827 243.5,479.5C 247.298,478.517 251.298,478.183 255.5,478.5C 260.5,478.5 265.5,478.5 270.5,478.5C 270.168,446.662 270.502,414.996 271.5,383.5 Z"/></g>
</svg>
